<mxfile host="Electron" modified="2024-03-15T05:57:08.559Z" agent="Mozilla/5.0 (Windows NT 10.0; Win64; x64) AppleWebKit/537.36 (KHTML, like Gecko) draw.io/22.1.18 Chrome/120.0.6099.199 Electron/28.1.2 Safari/537.36" etag="De2F0zj53GSUnc5-oPRl" version="22.1.18" type="device">
  <diagram id="C5RBs43oDa-KdzZeNtuy" name="Page-1">
    <mxGraphModel dx="1221" dy="823" grid="1" gridSize="10" guides="1" tooltips="1" connect="1" arrows="1" fold="1" page="1" pageScale="1" pageWidth="827" pageHeight="1169" math="0" shadow="0">
      <root>
        <mxCell id="WIyWlLk6GJQsqaUBKTNV-0" />
        <mxCell id="WIyWlLk6GJQsqaUBKTNV-1" parent="WIyWlLk6GJQsqaUBKTNV-0" />
        <mxCell id="VmiJkzXm2jO6uLr0uvcs-13" style="edgeStyle=orthogonalEdgeStyle;rounded=0;orthogonalLoop=1;jettySize=auto;html=1;exitX=0.5;exitY=1;exitDx=0;exitDy=0;entryX=0.5;entryY=0;entryDx=0;entryDy=0;" edge="1" parent="WIyWlLk6GJQsqaUBKTNV-1" source="VmiJkzXm2jO6uLr0uvcs-1" target="VmiJkzXm2jO6uLr0uvcs-2">
          <mxGeometry relative="1" as="geometry" />
        </mxCell>
        <mxCell id="VmiJkzXm2jO6uLr0uvcs-1" value="入口" style="rounded=1;whiteSpace=wrap;html=1;" vertex="1" parent="WIyWlLk6GJQsqaUBKTNV-1">
          <mxGeometry x="320" y="160" width="120" height="30" as="geometry" />
        </mxCell>
        <mxCell id="VmiJkzXm2jO6uLr0uvcs-2" value="查找PCB链表" style="rounded=0;whiteSpace=wrap;html=1;" vertex="1" parent="WIyWlLk6GJQsqaUBKTNV-1">
          <mxGeometry x="310" y="229" width="140" height="30" as="geometry" />
        </mxCell>
        <mxCell id="VmiJkzXm2jO6uLr0uvcs-7" style="edgeStyle=orthogonalEdgeStyle;rounded=0;orthogonalLoop=1;jettySize=auto;html=1;exitX=0.5;exitY=1;exitDx=0;exitDy=0;exitPerimeter=0;entryX=0.5;entryY=0;entryDx=0;entryDy=0;" edge="1" parent="WIyWlLk6GJQsqaUBKTNV-1" source="VmiJkzXm2jO6uLr0uvcs-3" target="VmiJkzXm2jO6uLr0uvcs-6">
          <mxGeometry relative="1" as="geometry" />
        </mxCell>
        <mxCell id="VmiJkzXm2jO6uLr0uvcs-8" style="edgeStyle=orthogonalEdgeStyle;rounded=0;orthogonalLoop=1;jettySize=auto;html=1;exitX=1;exitY=0.5;exitDx=0;exitDy=0;exitPerimeter=0;entryX=0.5;entryY=0;entryDx=0;entryDy=0;" edge="1" parent="WIyWlLk6GJQsqaUBKTNV-1" source="VmiJkzXm2jO6uLr0uvcs-3" target="VmiJkzXm2jO6uLr0uvcs-4">
          <mxGeometry relative="1" as="geometry" />
        </mxCell>
        <mxCell id="VmiJkzXm2jO6uLr0uvcs-3" value="有空闲PCB?" style="strokeWidth=2;html=1;shape=mxgraph.flowchart.decision;whiteSpace=wrap;" vertex="1" parent="WIyWlLk6GJQsqaUBKTNV-1">
          <mxGeometry x="280" y="277" width="200" height="70" as="geometry" />
        </mxCell>
        <mxCell id="VmiJkzXm2jO6uLr0uvcs-4" value="创建失败" style="rounded=0;whiteSpace=wrap;html=1;" vertex="1" parent="WIyWlLk6GJQsqaUBKTNV-1">
          <mxGeometry x="520" y="366" width="110" height="34" as="geometry" />
        </mxCell>
        <mxCell id="VmiJkzXm2jO6uLr0uvcs-15" style="edgeStyle=orthogonalEdgeStyle;rounded=0;orthogonalLoop=1;jettySize=auto;html=1;exitX=0.5;exitY=1;exitDx=0;exitDy=0;entryX=0.5;entryY=0;entryDx=0;entryDy=0;" edge="1" parent="WIyWlLk6GJQsqaUBKTNV-1" source="VmiJkzXm2jO6uLr0uvcs-6" target="VmiJkzXm2jO6uLr0uvcs-9">
          <mxGeometry relative="1" as="geometry" />
        </mxCell>
        <mxCell id="VmiJkzXm2jO6uLr0uvcs-6" value="获取空PCB（i）" style="rounded=0;whiteSpace=wrap;html=1;" vertex="1" parent="WIyWlLk6GJQsqaUBKTNV-1">
          <mxGeometry x="310" y="366" width="140" height="30" as="geometry" />
        </mxCell>
        <mxCell id="VmiJkzXm2jO6uLr0uvcs-16" style="edgeStyle=orthogonalEdgeStyle;rounded=0;orthogonalLoop=1;jettySize=auto;html=1;exitX=0.5;exitY=1;exitDx=0;exitDy=0;entryX=0.5;entryY=0;entryDx=0;entryDy=0;" edge="1" parent="WIyWlLk6GJQsqaUBKTNV-1" source="VmiJkzXm2jO6uLr0uvcs-9" target="VmiJkzXm2jO6uLr0uvcs-10">
          <mxGeometry relative="1" as="geometry" />
        </mxCell>
        <mxCell id="VmiJkzXm2jO6uLr0uvcs-9" value="初始化PCB（i）" style="rounded=0;whiteSpace=wrap;html=1;" vertex="1" parent="WIyWlLk6GJQsqaUBKTNV-1">
          <mxGeometry x="310" y="434" width="140" height="30" as="geometry" />
        </mxCell>
        <mxCell id="VmiJkzXm2jO6uLr0uvcs-17" style="edgeStyle=orthogonalEdgeStyle;rounded=0;orthogonalLoop=1;jettySize=auto;html=1;exitX=0.5;exitY=1;exitDx=0;exitDy=0;entryX=0.5;entryY=0;entryDx=0;entryDy=0;" edge="1" parent="WIyWlLk6GJQsqaUBKTNV-1" source="VmiJkzXm2jO6uLr0uvcs-10" target="VmiJkzXm2jO6uLr0uvcs-11">
          <mxGeometry relative="1" as="geometry" />
        </mxCell>
        <mxCell id="VmiJkzXm2jO6uLr0uvcs-10" value="PCB（i）入就绪队列" style="rounded=0;whiteSpace=wrap;html=1;" vertex="1" parent="WIyWlLk6GJQsqaUBKTNV-1">
          <mxGeometry x="310" y="503" width="140" height="30" as="geometry" />
        </mxCell>
        <mxCell id="VmiJkzXm2jO6uLr0uvcs-18" style="edgeStyle=orthogonalEdgeStyle;rounded=0;orthogonalLoop=1;jettySize=auto;html=1;exitX=0.5;exitY=1;exitDx=0;exitDy=0;entryX=0.5;entryY=0;entryDx=0;entryDy=0;" edge="1" parent="WIyWlLk6GJQsqaUBKTNV-1" source="VmiJkzXm2jO6uLr0uvcs-11" target="VmiJkzXm2jO6uLr0uvcs-12">
          <mxGeometry relative="1" as="geometry" />
        </mxCell>
        <mxCell id="VmiJkzXm2jO6uLr0uvcs-11" value="PCB（i）入家族链" style="rounded=0;whiteSpace=wrap;html=1;" vertex="1" parent="WIyWlLk6GJQsqaUBKTNV-1">
          <mxGeometry x="310" y="571" width="140" height="30" as="geometry" />
        </mxCell>
        <mxCell id="VmiJkzXm2jO6uLr0uvcs-12" value="返回" style="rounded=1;whiteSpace=wrap;html=1;" vertex="1" parent="WIyWlLk6GJQsqaUBKTNV-1">
          <mxGeometry x="320" y="640" width="120" height="30" as="geometry" />
        </mxCell>
        <mxCell id="VmiJkzXm2jO6uLr0uvcs-14" style="edgeStyle=orthogonalEdgeStyle;rounded=0;orthogonalLoop=1;jettySize=auto;html=1;exitX=0.5;exitY=1;exitDx=0;exitDy=0;entryX=0.5;entryY=0;entryDx=0;entryDy=0;entryPerimeter=0;" edge="1" parent="WIyWlLk6GJQsqaUBKTNV-1" source="VmiJkzXm2jO6uLr0uvcs-2" target="VmiJkzXm2jO6uLr0uvcs-3">
          <mxGeometry relative="1" as="geometry" />
        </mxCell>
      </root>
    </mxGraphModel>
  </diagram>
</mxfile>
